<?xml version="1.0" standalone="no"?>
<!DOCTYPE svg PUBLIC "-//W3C//DTD SVG 20010904//EN"
 "http://www.w3.org/TR/2001/REC-SVG-20010904/DTD/svg10.dtd">
<svg version="1.0" xmlns="http://www.w3.org/2000/svg"
 width="666.000000pt" height="375.000000pt" viewBox="0 0 666.000000 375.000000"
 preserveAspectRatio="xMidYMid meet">
<metadata>
Created by potrace 1.16, written by Peter Selinger 2001-2019
</metadata>
<g transform="translate(0.000000,375.000000) scale(0.100000,-0.100000)"
fill="#000000" stroke="none">
<path d="M3368 3397 c-26 -19 -53 -53 -68 -83 -14 -28 -40 -66 -58 -85 -53
-54 -72 -100 -72 -171 0 -62 25 -159 55 -218 9 -16 13 -30 11 -30 -3 0 35 -80
85 -177 49 -97 89 -179 89 -183 0 -4 -11 -12 -25 -18 -47 -22 -59 -63 -63
-228 -3 -124 -1 -156 12 -182 29 -56 243 -228 342 -276 46 -22 69 -25 235 -31
l184 -7 97 91 c126 119 138 139 138 230 0 89 -30 281 -68 435 -15 64 -21 72
-80 125 -129 114 -258 183 -331 178 -19 -2 -29 9 -58 63 -51 97 -110 206 -211
391 -49 91 -93 176 -97 188 -10 33 -64 28 -117 -12z m109 -182 c66 -123 87
-163 137 -260 26 -49 51 -97 56 -105 6 -8 19 -32 29 -53 19 -37 19 -38 0 -32
-26 9 -76 -3 -95 -22 -14 -14 -16 -14 -21 6 -3 11 -9 21 -14 21 -5 0 -9 5 -9
11 0 6 -18 50 -41 97 -22 48 -52 112 -67 142 -14 30 -31 66 -37 80 -7 14 -20
48 -29 77 -15 46 -16 55 -2 88 23 53 42 42 93 -50z m-158 -133 c13 -31 69
-149 124 -262 105 -213 109 -231 82 -297 -13 -31 -35 -38 -35 -11 0 5 -31 69
-70 140 -38 72 -72 140 -76 152 -3 12 -15 41 -26 66 -11 24 -21 49 -23 55 -1
5 -4 17 -8 25 -23 64 -28 109 -16 148 7 23 15 42 18 42 3 0 17 -26 30 -58z
m671 -468 c25 -16 71 -49 102 -73 54 -41 59 -48 83 -123 24 -77 50 -232 62
-368 l5 -65 -43 -45 c-24 -25 -68 -67 -98 -92 l-53 -46 -155 3 c-140 4 -157 6
-186 27 -18 12 -33 26 -35 30 -2 4 -8 8 -14 8 -5 0 -25 12 -44 27 l-36 27 38
14 c34 14 38 14 50 -3 12 -15 23 -17 86 -12 156 12 189 56 218 296 6 46 17 93
25 104 19 27 19 67 1 67 -10 0 -16 13 -18 38 -3 34 -6 37 -37 40 -18 2 -37 0
-42 -5 -4 -4 -10 -48 -13 -98 -3 -49 -11 -135 -18 -190 -10 -87 -15 -104 -39
-127 -37 -37 -69 -37 -69 -1 0 156 24 560 33 570 7 7 30 21 52 32 45 22 63 17
145 -35z m-380 -266 c0 -33 -14 -62 -70 -150 -38 -57 -40 -66 -40 -137 l-1
-76 -39 42 -40 42 0 130 0 129 82 50 82 49 13 -25 c7 -13 13 -37 13 -54z"/>
<path d="M2985 2114 c-27 -7 -181 -51 -225 -65 -62 -19 -194 -70 -237 -91 -48
-24 -62 -56 -88 -203 -8 -49 -20 -107 -26 -129 -6 -23 -12 -87 -13 -144 l-1
-104 70 -66 c86 -83 269 -220 345 -261 44 -24 71 -31 112 -31 62 0 107 26 238
135 l78 65 338 2 339 3 13 40 c11 32 11 48 2 80 -7 22 -14 68 -16 102 -5 96
-57 198 -118 231 -38 19 -153 41 -263 49 -80 5 -82 6 -93 37 -40 108 -140 219
-260 287 -34 19 -67 39 -74 46 -15 13 -91 24 -121 17z m123 -131 c104 -67 182
-134 207 -177 35 -59 33 -65 -17 -56 -24 5 -67 8 -97 9 -62 0 -111 9 -111 20
0 12 -77 61 -94 61 -10 0 -13 -8 -10 -27 3 -15 7 -30 10 -35 3 -5 -6 -7 -21
-4 -42 8 -55 -2 -55 -44 0 -47 7 -50 116 -50 77 0 315 -24 509 -51 44 -6 103
-13 130 -16 28 -3 61 -12 75 -20 24 -14 60 -64 60 -84 0 -11 -315 -11 -685 0
-143 4 -266 6 -272 3 -14 -4 -18 -70 -5 -87 4 -6 167 -11 442 -13 l435 -3 53
-35 c96 -63 103 -62 -405 -64 -303 0 -460 -4 -464 -11 -3 -6 -3 -25 0 -42 l7
-32 77 -5 78 -5 -38 -35 c-65 -60 -124 -85 -149 -61 -5 6 -32 23 -60 38 -29
15 -67 40 -85 56 -19 15 -59 46 -89 68 -30 22 -79 63 -109 92 l-54 52 7 89 c8
97 29 222 52 304 14 48 19 54 67 76 88 40 365 124 415 125 13 1 49 -16 80 -36z"/>
<path d="M2520 730 c-11 -15 -20 -31 -20 -34 0 -3 -38 -63 -85 -132 -47 -69
-85 -128 -85 -130 0 -2 -11 -22 -25 -44 -13 -21 -21 -41 -17 -44 5 -3 51 -6
104 -7 76 -1 100 2 112 14 9 9 16 19 16 23 0 21 41 33 115 33 74 0 115 -12
115 -33 0 -4 6 -14 14 -22 19 -18 226 -21 226 -2 0 6 -14 29 -30 52 -41 56
-170 252 -170 259 0 3 -13 26 -30 50 l-29 44 -95 0 c-94 1 -96 1 -116 -27z"/>
<path d="M3898 689 c-24 -38 -54 -89 -68 -113 -14 -24 -33 -54 -43 -67 -30
-41 -97 -155 -97 -166 0 -2 49 -3 108 -3 l109 0 19 35 19 35 90 0 c94 -1 112
-7 134 -47 11 -22 18 -23 116 -23 85 0 105 3 105 14 0 8 -4 17 -9 20 -5 4 -30
42 -55 85 -25 43 -51 85 -59 92 -7 8 -37 53 -65 101 -29 48 -58 91 -64 94 -6
4 -53 8 -104 10 l-92 3 -44 -70z"/>
<path d="M4506 752 l-69 -3 6 -201 c4 -111 9 -204 12 -207 9 -8 132 -14 159
-7 22 5 25 10 20 36 -4 16 -3 45 0 65 7 33 9 35 47 35 44 0 69 -20 133 -103
l30 -37 105 2 c58 2 109 7 112 12 4 4 -15 31 -42 58 -27 28 -49 56 -49 62 0 7
10 18 23 25 37 19 57 63 57 121 0 43 -5 59 -31 91 -20 25 -41 40 -62 44 -38 6
-351 11 -451 7z"/>
<path d="M1599 728 c-5 -9 -9 -102 -9 -207 l0 -191 95 0 95 0 0 55 c0 30 4 55
9 55 4 0 24 -11 44 -24 19 -13 43 -27 53 -30 11 -3 32 -17 48 -31 28 -24 34
-25 178 -25 81 0 148 4 148 8 0 9 -19 22 -190 128 -91 57 -127 82 -119 87 2 1
24 13 49 26 25 13 54 32 66 42 11 11 25 19 30 19 5 0 33 15 62 34 28 19 52 33
52 30 0 -3 7 1 15 10 31 30 16 34 -130 32 -142 -2 -145 -3 -192 -32 -26 -17
-65 -41 -85 -53 l-37 -22 -3 53 -3 53 -83 0 c-69 0 -86 -3 -93 -17z"/>
<path d="M3056 688 l1 -63 127 3 c79 2 126 0 126 -6 0 -6 -17 -20 -37 -33 -46
-26 -114 -71 -128 -82 -5 -5 -32 -21 -60 -35 -49 -27 -50 -28 -51 -74 0 -27 3
-52 6 -58 4 -7 110 -9 306 -8 l299 3 0 55 0 55 -142 3 c-134 2 -173 12 -125
29 9 4 53 30 97 58 44 29 90 57 102 63 43 23 53 42 53 98 l0 54 -288 0 -288 0
2 -62z"/>
</g>
</svg>
