<?xml version="1.0" standalone="no"?>
<!DOCTYPE svg PUBLIC "-//W3C//DTD SVG 20010904//EN"
 "http://www.w3.org/TR/2001/REC-SVG-20010904/DTD/svg10.dtd">
<svg version="1.0" xmlns="http://www.w3.org/2000/svg"
 width="585.000000pt" height="330.000000pt" viewBox="0 0 585.000000 330.000000"
 preserveAspectRatio="xMidYMid meet">
<metadata>
Created by potrace 1.16, written by Peter Selinger 2001-2019
</metadata>
<g transform="translate(0.000000,330.000000) scale(0.100000,-0.100000)"
fill="#000000" stroke="none">
<path d="M2848 2830 c-42 -22 -96 -84 -105 -120 -3 -13 -25 -44 -49 -68 -53
-53 -68 -97 -61 -176 8 -92 42 -181 149 -393 l96 -192 -34 -20 c-48 -29 -65
-75 -71 -200 -9 -176 6 -201 207 -355 146 -112 155 -115 360 -122 l175 -7 90
79 c49 44 102 100 118 126 l28 45 -11 109 c-23 226 -59 390 -96 441 -29 39
-169 145 -236 179 -47 24 -114 34 -136 20 -6 -3 -34 38 -63 91 -95 178 -116
217 -161 303 -118 223 -150 280 -156 280 -4 -1 -23 -10 -44 -20z m79 -175
c146 -269 253 -471 253 -479 0 -4 -9 -2 -19 4 -37 19 -88 12 -110 -16 l-21
-27 -95 195 c-105 217 -135 291 -135 328 0 30 47 103 62 98 6 -2 35 -49 65
-103z m-167 -97 c25 -65 44 -106 142 -308 l99 -204 -11 -50 c-19 -87 -43 -98
-78 -33 -146 263 -234 488 -217 555 8 32 32 72 44 72 5 0 14 -15 21 -32z m378
-441 c7 -8 8 -35 2 -82 -5 -39 -10 -101 -10 -140 l0 -70 -35 80 c-39 86 -40
115 -8 188 17 38 33 46 51 24z m223 -11 c44 -18 164 -103 209 -148 26 -25 39
-50 49 -89 25 -110 49 -257 56 -345 7 -86 6 -93 -16 -124 -13 -18 -58 -61 -99
-97 l-75 -64 -140 6 c-77 4 -156 11 -175 16 -33 8 -170 103 -170 117 0 4 25
17 55 28 53 20 55 21 55 3 0 -26 36 -33 106 -20 75 14 120 45 139 96 8 22 21
90 29 151 8 61 21 125 30 142 20 39 20 48 1 32 -13 -11 -15 -6 -15 39 0 50 -1
51 -29 51 -29 0 -29 0 -36 -77 -15 -184 -33 -304 -49 -328 -15 -22 -90 -55
-101 -43 -6 5 13 564 20 595 3 14 23 32 53 47 56 30 60 30 103 12z m-313 -256
c22 -73 16 -99 -50 -206 -31 -50 -38 -71 -39 -115 -1 -30 -4 -67 -8 -84 l-7
-30 -52 51 -52 51 0 90 c0 50 3 111 6 137 7 45 9 48 63 75 31 16 67 38 81 50
35 29 43 26 58 -19z"/>
<path d="M2405 1538 c-83 -20 -352 -110 -394 -131 -25 -13 -53 -34 -62 -47
-27 -37 -71 -267 -76 -401 l-5 -115 73 -68 c82 -75 226 -185 306 -233 76 -47
122 -57 169 -37 41 17 147 92 222 157 l43 37 329 0 330 0 6 26 c9 36 -2 103
-20 123 -20 22 -20 31 -1 31 13 0 15 8 10 38 -16 95 -48 158 -95 192 -30 22
-218 60 -293 60 -43 0 -77 15 -77 33 0 7 -11 35 -24 62 -51 110 -285 287 -375
284 -14 -1 -44 -5 -66 -11z m176 -104 c96 -64 183 -147 204 -194 10 -22 15
-43 12 -46 -3 -3 -60 -2 -126 4 -117 10 -122 11 -172 48 -54 39 -55 39 -32
-23 3 -8 -8 -10 -37 -6 l-41 6 3 -34 3 -34 95 -7 c373 -29 644 -61 698 -84 23
-9 38 -26 52 -56 32 -71 33 -71 -77 -65 -54 4 -269 8 -478 9 l-380 3 -3 -31
-3 -31 438 -7 438 -8 45 -27 c43 -27 74 -66 64 -83 -3 -4 -210 -8 -460 -8
l-454 0 0 -30 0 -30 78 -1 c122 -1 126 -7 46 -66 -90 -66 -111 -76 -140 -69
-58 15 -277 172 -374 268 l-52 53 5 75 c5 66 47 302 63 353 10 33 193 101 444
166 47 12 64 7 141 -45z"/>
</g>
</svg>
