<?xml version="1.0" standalone="no"?>
<!DOCTYPE svg PUBLIC "-//W3C//DTD SVG 20010904//EN"
 "http://www.w3.org/TR/2001/REC-SVG-20010904/DTD/svg10.dtd">
<svg version="1.0" xmlns="http://www.w3.org/2000/svg"
 width="500.000000pt" height="500.000000pt" viewBox="0 0 500.000000 500.000000"
 preserveAspectRatio="xMidYMid meet">
<metadata>
Created by potrace 1.16, written by Peter Selinger 2001-2019
</metadata>
<g transform="translate(0.000000,500.000000) scale(0.100000,-0.100000)"
fill="#000000" stroke="none">
<path d="M1627 3539 c-48 -4 -94 -12 -101 -19 -15 -12 -27 -41 -46 -110 -7
-25 -16 -56 -20 -70 -4 -14 -13 -45 -20 -70 -7 -25 -18 -63 -25 -85 -7 -22
-36 -125 -65 -228 l-53 -189 -48 76 c-27 42 -49 81 -49 87 0 6 16 38 36 72 20
34 45 76 54 92 9 17 34 58 54 93 21 35 47 84 58 109 19 44 19 48 3 107 -9 33
-21 71 -27 82 -22 46 -109 53 -358 26 -62 -7 -65 -8 -87 -47 -13 -22 -23 -35
-23 -28 0 7 -12 24 -26 39 -30 29 -33 29 -253 -3 -93 -14 -116 -21 -127 -38
-11 -18 -14 -106 -11 -492 2 -537 -6 -490 96 -541 48 -23 67 -27 130 -25 l74
2 -46 -46 c-100 -100 -150 -270 -128 -431 13 -95 15 -99 56 -187 90 -188 328
-310 542 -275 43 6 96 21 117 31 44 21 72 24 81 9 9 -14 261 -13 288 1 29 16
35 26 48 77 9 34 16 42 34 42 18 0 29 -11 47 -47 36 -74 37 -74 335 -71 239 3
263 5 282 22 11 10 23 33 26 50 l6 31 97 -3 c118 -4 122 -5 122 -37 0 -53 21
-60 165 -60 97 0 136 4 148 14 14 11 20 11 32 1 35 -29 492 -42 545 -15 26 13
34 12 102 -13 64 -24 87 -27 189 -27 64 0 127 5 140 11 13 6 38 17 54 25 64
29 145 91 173 132 46 68 56 105 56 202 0 95 -21 161 -65 201 -20 18 -25 44
-10 59 17 19 51 132 57 193 5 48 3 67 -10 87 l-16 25 73 0 c65 0 79 4 123 31
113 72 112 87 -15 348 -17 36 -31 69 -31 75 0 6 15 27 34 47 57 60 79 114 84
206 6 119 -30 214 -114 298 -76 76 -253 125 -453 125 -40 0 -102 5 -136 12
-56 10 -66 9 -95 -8 -17 -10 -38 -30 -45 -44 -7 -14 -22 -44 -35 -68 -19 -38
-22 -58 -21 -175 l0 -132 -20 60 c-10 33 -29 92 -40 130 -12 39 -25 79 -29 90
-5 11 -14 42 -22 68 -19 71 -38 87 -104 87 -31 0 -109 5 -173 11 -108 10 -121
10 -145 -6 -34 -23 -66 -85 -105 -206 -34 -105 -101 -337 -119 -413 l-7 -29
-80 2 c-89 3 -106 11 -86 43 7 11 21 36 31 54 11 18 30 50 43 71 81 129 100
189 113 375 l7 88 -36 15 c-30 12 -93 15 -351 15 -335 0 -361 -3 -372 -47 -13
-48 20 -339 40 -358 9 -10 35 -15 70 -15 47 0 56 -3 61 -21 4 -12 3 -24 -1
-28 -9 -6 -16 -18 -61 -100 -44 -79 -64 -111 -72 -111 -11 0 -53 130 -106 330
-53 195 -77 260 -118 306 l-39 44 -96 -1 c-54 -1 -137 -5 -185 -10z m1193
-119 c0 -51 -6 -81 -22 -114 -12 -25 -25 -43 -29 -40 -5 3 -11 -7 -15 -21 -4
-17 -11 -24 -21 -21 -8 3 -11 1 -8 -4 3 -6 1 -10 -4 -10 -6 0 -11 -7 -11 -15
0 -8 -5 -15 -11 -15 -5 0 -7 4 -4 10 3 5 0 7 -8 4 -9 -3 -13 -16 -11 -35 4
-36 -8 -38 -26 -4 -13 23 -23 25 -26 4 -3 -20 -5 -25 -14 -39 -8 -13 -11 -12
-23 4 -11 15 -17 17 -35 7 -14 -7 -29 -8 -46 -2 -26 10 -54 -8 -42 -27 3 -6
-2 -16 -12 -23 -15 -13 -16 -12 -3 4 7 9 9 17 3 17 -5 0 -12 -6 -15 -14 -3 -8
-52 -84 -108 -170 -97 -149 -102 -159 -107 -221 -7 -89 -24 -82 -21 8 1 58 6
78 25 104 13 17 24 36 24 41 0 6 4 12 9 14 12 4 82 114 117 184 16 33 36 64
44 71 8 7 12 13 8 13 -4 0 12 33 37 73 43 70 43 72 22 79 -12 3 -79 6 -149 7
l-128 1 0 100 0 100 305 0 305 0 0 -70z m-907 -15 c10 -38 20 -88 22 -111 2
-22 13 -69 24 -104 12 -35 21 -71 21 -80 0 -9 4 -20 10 -26 5 -5 11 -32 14
-61 4 -42 2 -51 -10 -46 -8 3 -14 9 -14 14 0 12 -37 11 -45 -1 -3 -5 -11 -10
-16 -10 -6 0 -7 5 -4 10 7 11 -15 13 -39 4 -9 -3 -13 -10 -10 -15 5 -8 -10
-13 -29 -10 -5 1 -6 -3 -3 -7 3 -5 -3 -19 -13 -31 -15 -18 -29 -21 -87 -21
-75 0 -113 13 -75 25 12 3 42 5 66 4 25 -2 49 1 54 6 6 6 3 38 -10 85 -34 134
-40 153 -48 144 -5 -5 -16 -43 -25 -84 -10 -41 -22 -90 -27 -107 -12 -39 -38
-45 -34 -8 2 14 -1 25 -6 25 -5 0 -10 -10 -10 -22 -1 -21 -2 -21 -6 -3 -7 29
-24 46 -37 37 -6 -4 -24 -8 -41 -8 -73 -3 -70 -1 -89 -66 -61 -215 -89 -313
-93 -317 -19 -25 1 81 47 244 5 17 18 66 30 110 12 44 25 94 30 110 32 115 53
193 77 282 l27 102 40 4 c23 2 97 3 166 3 l124 -1 19 -70z m1477 65 l57 0 27
-97 c15 -54 28 -108 29 -120 1 -13 4 -23 8 -23 4 0 9 -12 12 -27 3 -16 8 -37
11 -48 3 -11 0 -28 -8 -38 -11 -15 -20 -16 -53 -9 -30 7 -46 5 -68 -7 -37 -20
-40 -36 -19 -106 15 -53 15 -58 -2 -76 -14 -15 -31 -19 -89 -19 -74 0 -87 4
-79 23 3 8 24 11 59 9 83 -6 85 -3 70 60 -23 92 -48 173 -56 182 -4 5 -11 -4
-14 -20 -4 -16 -10 -40 -14 -54 l-7 -24 -19 31 c-16 27 -20 30 -30 17 -9 -14
-16 -14 -52 -1 -37 13 -41 12 -37 -2 3 -9 -1 -5 -8 9 -17 35 -16 34 -33 20 -8
-7 -15 -21 -15 -31 0 -11 -4 -27 -9 -37 -5 -9 -14 -35 -20 -57 -6 -22 -20 -69
-30 -105 -11 -36 -29 -99 -41 -140 -27 -93 -42 -132 -47 -127 -4 5 9 62 38
167 12 41 22 82 23 90 1 9 4 20 7 25 3 6 12 37 19 70 7 33 17 65 23 72 5 7 6
16 4 20 -5 8 14 86 53 218 22 73 32 112 37 139 l6 29 105 -7 c58 -3 131 -6
162 -6z m-2118 -32 c-38 -64 -95 -164 -125 -218 -17 -30 -38 -67 -49 -82 -10
-14 -18 -31 -18 -37 0 -6 -9 -15 -20 -21 -11 -6 -20 -16 -20 -23 0 -7 4 -6 10
3 6 9 10 10 10 3 0 -7 -8 -16 -17 -21 -16 -9 -16 -13 -1 -51 9 -23 12 -39 7
-36 -5 3 -6 -1 -3 -9 5 -13 -12 -14 -128 -10 -73 3 -154 10 -180 15 -26 6 -61
8 -78 4 -25 -5 -30 -3 -31 12 -1 10 -5 2 -9 -17 -5 -23 -8 -27 -9 -12 0 12 -5
22 -9 22 -9 0 -21 -146 -24 -289 l-1 -76 -8 90 c-4 50 -7 230 -8 401 l-1 311
113 17 c61 10 119 19 127 22 13 3 15 -18 12 -156 -3 -136 -1 -159 11 -154 12
4 146 239 169 297 4 9 14 20 22 23 12 5 162 18 249 23 l29 1 -20 -32z m2743 7
c157 -18 204 -28 273 -62 120 -58 195 -208 163 -323 -6 -21 -8 -22 -14 -7 -3
9 -4 23 -1 30 2 7 -2 21 -10 32 -15 19 -15 18 -16 -15 -1 -33 -1 -34 -16 -15
-16 21 -44 26 -56 10 -4 -6 -13 -2 -21 9 -9 13 -21 17 -36 13 -13 -3 -19 -1
-15 5 4 6 1 9 -7 6 -19 -6 -59 -89 -53 -108 3 -8 2 -11 -2 -8 -3 4 -19 1 -35
-7 -39 -21 -149 -20 -149 0 0 12 14 15 68 16 64 0 68 2 95 34 27 33 28 35 16
99 -8 48 -17 69 -33 79 -20 14 -78 30 -92 27 -4 -1 -11 4 -15 12 -6 9 -9 10
-9 1 0 -7 -7 -10 -15 -7 -9 4 -15 0 -16 -7 0 -8 -2 -27 -3 -44 -1 -16 -3 -59
-4 -94 -2 -63 -10 -79 -14 -29 -2 24 -6 26 -69 32 -82 8 -115 1 -123 -27 -3
-12 -6 -87 -7 -167 -3 -272 -15 -206 -23 120 -4 179 -8 344 -9 368 l-2 42 60
0 c33 0 119 -7 190 -15z m-2203 -908 c16 -28 37 -58 48 -64 14 -9 94 -13 283
-14 146 -1 270 -5 277 -9 7 -4 9 -13 5 -20 -9 -15 -221 -6 -240 10 -8 7 -21 3
-39 -11 l-26 -20 -1 -252 c-1 -139 -3 -243 -6 -232 -2 11 -20 87 -40 168 -31
125 -44 160 -84 225 -81 132 -79 131 -190 138 l-96 7 13 26 c8 14 17 43 20 64
5 29 11 37 28 37 15 0 28 -14 48 -53z m1496 16 c27 -92 28 -90 -31 -97 -28 -4
-76 -6 -105 -5 l-53 2 30 20 c17 10 31 23 31 27 0 5 12 27 27 49 22 34 32 41
58 41 28 0 33 -4 43 -37z m-1648 -102 c0 -6 -21 -16 -46 -23 -51 -15 -63 -32
-88 -118 -9 -30 -25 -84 -35 -120 -11 -36 -27 -91 -36 -123 -9 -31 -21 -54
-26 -51 -6 3 -9 65 -7 148 2 116 0 145 -12 158 -8 8 -32 34 -53 57 -34 36 -42
41 -70 36 -18 -3 -54 1 -82 9 l-50 14 90 2 c50 1 135 2 190 1 55 0 120 3 145
8 64 12 80 12 80 2z m1410 -1 c-8 -6 -32 -15 -53 -20 -21 -6 -35 -15 -33 -19
3 -5 9 -187 12 -405 l7 -397 -113 3 -112 3 1 200 c1 110 -1 196 -6 192 -4 -5
-30 -72 -58 -150 l-51 -142 -72 -3 -73 -3 -18 43 c-10 24 -35 89 -57 146 -21
56 -42 102 -46 102 -5 0 -8 -88 -8 -195 l0 -195 -105 0 -105 0 0 400 0 400
133 0 133 0 13 -37 c8 -21 26 -65 41 -98 14 -33 37 -86 50 -118 26 -67 37 -77
49 -45 116 288 120 301 110 320 -20 37 -37 16 -97 -118 l-27 -62 -52 104 -52
104 302 0 c202 0 297 -4 287 -10z m-1857 -54 c43 -7 81 -17 86 -22 5 -5 5 -34
1 -64 -5 -30 -9 -79 -9 -108 l-1 -53 -30 16 c-42 21 -165 30 -220 15 -54 -15
-101 -62 -118 -117 -29 -98 -3 -232 52 -268 34 -22 100 -37 132 -29 23 6 25
10 22 63 l-3 56 -42 3 -43 3 0 84 0 83 108 6 c59 4 121 8 138 10 31 4 32 3 38
-42 3 -26 8 -94 11 -152 3 -58 8 -132 10 -166 l5 -60 -37 -21 c-128 -70 -302
-88 -418 -43 -79 31 -154 105 -186 185 -20 53 -23 76 -23 195 0 117 3 143 23
193 40 100 136 180 261 216 25 8 56 17 70 21 36 12 84 11 173 -4z m706 -103
c18 -60 59 -198 91 -308 32 -110 69 -237 83 -282 13 -45 22 -85 19 -88 -3 -3
-58 -5 -122 -5 l-117 0 -14 68 -14 67 -97 3 -97 3 -22 -74 -21 -74 -67 -7
c-36 -3 -88 -6 -115 -6 -41 0 -48 2 -43 18 3 9 42 145 86 302 45 157 86 296
91 310 5 14 18 57 30 97 l21 72 52 4 c28 2 91 4 138 5 l86 2 32 -107z m1578
97 l93 0 0 -95 0 -95 -130 0 -130 0 0 -50 0 -50 115 0 115 0 0 -97 0 -98 -112
0 -113 0 -3 -51 -3 -51 92 -6 c51 -4 114 -7 141 -7 l48 0 0 -96 0 -97 -245 5
c-135 3 -247 7 -249 9 -2 2 -6 181 -10 398 l-7 394 152 -6 c84 -4 194 -7 246
-7z m570 -14 c138 -25 163 -34 163 -59 0 -25 -34 -155 -43 -163 -3 -3 -18 1
-34 9 -68 37 -149 47 -198 25 -20 -9 -25 -18 -23 -37 3 -27 11 -33 123 -82 94
-42 143 -83 171 -143 64 -136 -2 -290 -146 -341 -85 -30 -238 -16 -356 32 -37
15 -44 22 -39 38 3 11 13 54 22 95 9 41 17 76 18 77 0 1 27 -11 60 -27 102
-49 204 -49 220 0 12 36 -19 65 -104 100 -153 61 -215 123 -227 226 -8 66 9
122 52 172 74 87 166 108 341 78z"/>
</g>
</svg>
